<svg width="41" height="32" fill="none" xmlns="http://www.w3.org/2000/svg"><path d="M35.379 0c-.183 0-.33.15-.33.333V1c0 .184.147.333.33.333.183 0 .33-.149.33-.333V.333A.332.332 0 0 0 35.38 0Z" fill="#fff"/><path fill-rule="evenodd" clip-rule="evenodd" d="M12.565 16.667h6.612v4.666h-6.612v-4.666Zm5.128 1.469a.329.329 0 0 0-.462-.071l-1.787 1.327-.297-.415a.329.329 0 0 0-.461-.075.335.335 0 0 0-.075.465l.495.693a.329.329 0 0 0 .511.031l2.006-1.49a.335.335 0 0 0 .07-.465Z" fill="#fff"/><path fill-rule="evenodd" clip-rule="evenodd" d="M6.613.667h27.774V1c0 .552.444 1 .992 1a.996.996 0 0 0 .992-1V.667H41V32H0V.667h4.629V1c0 .552.444 1 .992 1a.996.996 0 0 0 .992-1V.667Zm-3.968 14v-6h7.936v6H2.645ZM10.581 22v-6H2.645v6h7.936Zm-7.936 7.333v-6h7.936v6H2.645ZM19.84 8.667h-7.936v6h7.936v-6ZM11.903 16h7.936v6h-7.936v-6Zm7.936 7.333h-7.936v6h7.936v-6ZM21.16 8.667h7.936v6H21.16v-6ZM29.097 16H21.16v6h7.936v-6Zm-7.936 7.333h7.936v6H21.16v-6ZM30.42 8.667v6h7.936v-6h-7.936ZM38.355 16v6h-7.936v-6h7.936Zm-7.936 7.333v6h7.936v-6h-7.936Zm-27.774-20h35.71v3.334H2.645V3.333Z" fill="#fff"/><path d="M5.29.333C5.29.15 5.438 0 5.621 0c.183 0 .33.15.33.333V1a.332.332 0 0 1-.33.333.332.332 0 0 1-.33-.333V.333Z" fill="#fff"/></svg>