<svg width="66" height="66" fill="none" xmlns="http://www.w3.org/2000/svg"><path d="m19.51 22.73 1.788.707s-.894 2.238 0 3.004 1.787.884 2.383 3.123c.596 2.238 6.316 9.484 8.521 9.484 2.205 0 6.317-2.533 8.283-5.773 1.966-3.24 2.681-5.891 2.681-5.891s.775.589 1.192-1.002c.417-1.59-.179-2.533.596-2.945.775-.413 1.907-.766 1.907-.766s-.12 4.89-.775 5.479c-.715.589-1.013 4.477-3.277 6.657-2.264 2.18-8.164 6.775-9.653 6.775-1.49 0-9.177-4.713-10.845-8.602-1.669-3.888-1.907-4.595-2.741-5.655-.954-1.12-.06-4.595-.06-4.595Z" fill="#fff"/><path d="M33.61 10.83c-4.052 0-7.33 3.24-7.33 7.246s3.278 7.246 7.33 7.246 7.329-3.24 7.329-7.246c0-4.007-3.337-7.247-7.33-7.247Zm0 9.543c-1.311 0-2.324-1.001-2.324-2.297 0-1.297 1.013-2.298 2.324-2.298 1.31 0 2.324 1.001 2.324 2.298 0 1.296-1.073 2.297-2.324 2.297Z" fill="#fff"/><path d="M41.177 7H27.174c-3.873 0-5.065 3.476-5.065 3.476V21.02c0 .943 1.132 1.12 1.132 1.12h2.026c-.595-1.238-.953-2.593-.953-4.065 0-5.185 4.23-9.368 9.474-9.368s9.475 4.183 9.475 9.368a9.29 9.29 0 0 1-.834 3.888h1.49c.595 0 .655-.648.655-.648v-9.014C44.634 8.708 41.177 7 41.177 7ZM40.939 39.697l-8.462 15.081-8.401-15.494s-.12 1.767-5.065 2.887C14.005 43.29 9 45.352 9 49.594s1.013 6.303 7.746 7.6c6.734 1.296 23.3 3.004 30.926.589 7.687-2.416 10.607-3.947 8.82-8.248-1.729-4.3-2.682-4.536-6.02-5.597-3.396-1.001-9.235-3.417-9.533-4.242Z" fill="#fff"/></svg>