<svg width="66" height="66" fill="none" xmlns="http://www.w3.org/2000/svg"><path d="M41.713 7c-3.71 0-7.832 2.235-7.832 2.235-2.12 1.06-5.124-2.176-10.012-2.176-4.888 0-10.895 3.588-6.125 17.412 2.238 11.058 1.06 20.764 1.06 25.411 0 4.589 7.362 10.118 7.362 10.118 0-13.353.412-23.412 7.656-23.412 7.243 0 6.89 23.412 6.89 23.412 8.421-7.353 6.596-13.235 5.595-22.824C45.305 27.588 48.662 24.06 49.84 17c1.178-7.059-4.417-10-8.127-10ZM23.28 10.353c0 2.47 2.71 2.882 2.71 2.882-2.71 0-2.945 3.118-2.945 1.942-.177-2-1.767-1.883-2.003-2 2.061-.412 2.238-2.824 2.238-2.824Zm-.942 8.882c-.118-1.294-1.12-1.176-1.296-1.235 1.296-.235 1.414-1.765 1.414-1.765 0 1.588 1.707 1.824 1.707 1.824-1.707 0-1.825 1.941-1.825 1.176Zm4.652-1.176c-.117-1.294-1.119-1.177-1.295-1.236 1.295-.235 1.413-1.764 1.413-1.764 0 1.588 1.708 1.823 1.708 1.823-1.708 0-1.826 1.941-1.826 1.177Z" fill="#fff"/></svg>