<svg width="33" height="41" fill="none" xmlns="http://www.w3.org/2000/svg"><path d="M9.462 9.462H0L9.462 0v9.462ZM13.818 15.166s-.754-.116-.754-.814c0 0-.049.681-.622.798.01.005.032.009.06.014.14.024.456.08.497.551 0 .103.006.09.037.021.07-.15.262-.57.782-.57ZM12.478 16.519c.09.01.296.032.324.343 0 .068.003.06.022.019.042-.092.16-.351.486-.351 0 0-.475-.067-.475-.516 0 0-.033.433-.393.5.007.002.02.003.036.005ZM13.772 16.186c.091.01.297.033.325.344 0 .067.003.06.022.018.041-.091.159-.35.486-.35 0 0-.475-.067-.475-.516 0 0-.033.432-.394.498.008.003.02.004.036.006Z" fill="#fff"/><path fill-rule="evenodd" clip-rule="evenodd" d="M0 10.25V41h32.327V0H10.25v10.25H0Zm16.014 3.786s1.148-.632 2.18-.632c1.032 0 2.59.831 2.262 2.826-.113.688-.299 1.257-.481 1.819-.347 1.068-.685 2.108-.503 3.884.03.294.063.575.095.845.26 2.23.438 3.753-1.652 5.607 0 0 .099-6.618-1.917-6.618s-2.13 2.843-2.13 6.618c0 0-2.05-1.563-2.05-2.86 0-.283.016-.632.034-1.037.064-1.476.16-3.693-.328-6.146-1.328-3.907.344-4.921 1.704-4.921.688 0 1.242.233 1.698.426.445.188.797.337 1.088.189Z" fill="#fff"/></svg>