<svg width="66" height="66" fill="none" xmlns="http://www.w3.org/2000/svg"><path d="M23.21 6.787 9 18.22l8.844 10.71v10.406l-2.135 5.384V58.94h8.478v-14.4l-1.952-5.143V28.75L11.257 18.222 24.492 8.117 23.21 6.787ZM57 18.948C57 11.808 51.145 6 43.948 6c-7.197 0-13.052 5.748-13.052 12.948 0 6.715 5.123 12.221 11.65 12.886v7.503l-2.44 5.142V59h7.928V44.48l-2.5-5.143v-7.563C51.999 31.048 57 25.542 57 18.948ZM43.948 30.14c-6.221 0-11.284-5.021-11.284-11.192 0-6.172 5.063-11.193 11.284-11.193 6.221 0 11.283 4.96 11.283 11.193 0 6.231-5.062 11.192-11.283 11.192Z" fill="#fff"/></svg>