<svg width="66" height="66" fill="none" xmlns="http://www.w3.org/2000/svg"><path d="M3.97 28.817S15.44 48 33.63 48C51.762 48 63 27.83 63 27.83S46.432 41.721 33.456 41.721C20.48 41.722 3.97 28.817 3.97 28.817ZM33.456 23.528c5.735 0 29.486 1.395 29.486 1.395-3.244 0-12.976-6.743-18.653-6.917-5.677-.175-10.428 3.836-10.428 3.836-5.503-2.964-11.47-5.987-19.174-1.686C6.982 24.458 2 25.446 2 25.446c24.62-2.558 25.72-1.918 31.456-1.918Z" fill="#fff"/><path d="M12.66 30.503c3.127.581 7.298 1.105 11.643.988 8.747-.232 9.616-.58 9.616-.58s-12.628.813-21.26-.408ZM12.66 30.503c-3.13-.581-5.215-1.162-5.215-1.162 1.39.523 3.187.93 5.214 1.162Z" fill="#fff"/></svg>