<svg width="66" height="66" fill="none" xmlns="http://www.w3.org/2000/svg"><path d="M43.776 32.703C45.81 32.703 50 23.87 50 17.306c0-6.563-4.252-10.305-7.58-10.305-3.327 0-7.27 2.76-9.735 2.76s-7.888-2.821-10.352-2.76C19.868 7.062 15 9.945 15 17.491c0 7.544 5.422 15.212 5.422 15.212h23.354ZM43.222 35.34H22.086v3.681h-3.389v2.577H46.92V39.02h-3.697v-3.68ZM41.866 43.315H23.503v3.251h-2.957v2.147H45.07v-2.147h-3.204v-3.25ZM40.018 50.676h-15.22v2.638h-2.465v1.779h20.334v-1.78h-2.65v-2.637ZM38.046 56.872h-10.66v1.901H25.66V60h14.296v-1.227h-1.91v-1.901Z" fill="#fff"/></svg>