<svg width="131" height="67" fill="none" xmlns="http://www.w3.org/2000/svg"><g clip-path="url('#clip0_4_4')" fill="#3E183A"><path d="M45.296 28.715c-.425-.521-.962-.785-1.603-.793-1.615.012-2.858.418-3.728 1.221-.869.804-1.445 1.824-1.723 3.061-.283 1.237-.404 2.647-.372 4.235.037 1.06.178 1.885.422 2.465.249.58.584.988 1.008 1.232.424.245.967.405 1.623.491l.495.006c1.317.018 2.371-.318 3.166-1.002.792-.685 1.346-1.595 1.662-2.729.312-1.134.447-2.4.399-3.802a12.189 12.189 0 0 0-.39-2.432c-.208-.784-.529-1.436-.959-1.953Zm-.947 9.458c-.395 1.1-1.105 1.644-2.128 1.632-.66-.057-1.163-.306-1.51-.754a3.529 3.529 0 0 1-.679-1.578 15.613 15.613 0 0 1-.203-2.157c-.003-.831.053-1.743.167-2.74.113-.992.335-1.867.67-2.621.329-.755.783-1.14 1.359-1.163.944.012 1.641.525 2.087 1.533.446 1.012.694 2.175.739 3.493l.012.364c.053 1.559-.118 2.888-.514 3.991ZM31.208 27.9c-.531.545-.778 1.313-.744 2.302.085 1.142.632 2.195 1.638 3.163l1.375 1.211c.527.45.918.868 1.18 1.253.26.387.401.85.42 1.389.023.679-.19 1.174-.642 1.487-.451.316-1.005.422-1.662.319a2.74 2.74 0 0 1-1.136-.487 2.825 2.825 0 0 1-.852-.998 3.08 3.08 0 0 1-.348-1.353c.014-.316.028-.631.04-.943.014-.317.025-.481.037-.5l-.788-.225-.173 3.819c.22.174.614.408 1.178.708.567.301 1.238.512 2.014.633l.05.008c.802.124 1.495.02 2.074-.314a3.22 3.22 0 0 0 1.305-1.35c.29-.565.427-1.108.41-1.62-.086-1.168-.684-2.212-1.789-3.131l-1.173-.971c-1.012-.884-1.563-1.835-1.658-2.86-.013-.402.125-.779.407-1.125.283-.347.625-.492 1.03-.43.366.057.659.264.873.624.213.356.331.747.346 1.17l.022.687.76.118-.093-2.708c.017.002-.186-.077-.612-.236a5.634 5.634 0 0 0-1.092-.31c-1.068-.096-1.866.128-2.397.67ZM3.927 10.063c.351.308.613.728.79 1.263.178.536.298 1.253.364 2.156l.273 9.08c.025.724-.012 1.236-.11 1.526-.098.292-.368.245-.813-.143l-.794-.698.032.943a43.036 43.036 0 0 1 2.988 2.367c.918.804 1.728 1.58 2.43 2.326l-.032-.947-1.052-.92c-.536-.47-.894-.991-1.073-1.565-.178-.574-.281-1.23-.307-1.977l-.346-11.256c.08.07.209.175.387.314.179.14.302.24.37.298.893.783 1.565 1.64 2.012 2.575.448.93.693 1.976.732 3.136.034.98-.082 1.63-.344 1.938-.261.309-.796.156-1.6-.466a1.648 1.648 0 0 0-.294-.208 7.707 7.707 0 0 1-.693-.829l.03.9c.424.569.804 1 1.143 1.298.058.05.114.116.168.192 1.004.855 1.76 1.064 2.276.624.514-.44.748-1.316.703-2.634-.024-.704-.18-1.471-.476-2.308a11.607 11.607 0 0 0-1.151-2.383c-.474-.75-.98-1.362-1.52-1.834a8.394 8.394 0 0 0-.513-.404c-.393-.295-1.033-.8-1.918-1.51-.318-.3-.745-.7-1.285-1.216-.541-.515-.921-.871-1.146-1.082l.028.845.741.599ZM23.619 37.039c-.004-.125.076-.571.235-1.336.155-.772.37-1.617.64-2.541.266-.928.58-1.79.94-2.591.8-1.723 1.595-2.457 2.385-2.196a1.557 1.557 0 0 1 .433.193l-.074-2.15a1.62 1.62 0 0 0-.433-.193c-.443-.146-.84-.058-1.197.268-.172.144-.353.389-.547.73-.19.343-.377.727-.563 1.156a76.648 76.648 0 0 0-.728 1.776c-.297.758-.457 1.16-.479 1.212l.095-6.345c-.592.087-1.289.114-2.086.07-.798-.038-1.487-.148-2.06-.324l.034 1.023 2.346.268-.185 10.57 1.244.41ZM14.095 32a5.257 5.257 0 0 0 1.867 1.66c1.032.548 1.819.659 2.361.336.541-.325.89-.782 1.05-1.371.156-.588.229-1.06.217-1.413l-.684-.469.007.205c.018.538-.079.99-.288 1.36-.207.368-.5.597-.875.688-.378.088-.79.012-1.236-.224-1.456-.848-2.274-2.604-2.443-5.267.027-.572.046-.856.054-.852 1.584.631 3.09 1.053 4.508 1.256.145-.806.21-1.476.19-2.01a6.769 6.769 0 0 0-.297-1.791 4.89 4.89 0 0 0-.838-1.583 4.58 4.58 0 0 0-1.477-1.204c-.695-.343-1.28-.418-1.755-.226-.477.19-.853.575-1.127 1.158-.272.58-.467 1.26-.58 2.041-.114.783-.175 1.65-.185 2.613.031.93.17 1.837.415 2.713A7.76 7.76 0 0 0 14.095 32Zm.546-9.094c.327-.968.859-1.263 1.593-.894.495.263.817.655.975 1.183.158.528.247 1.123.27 1.785.018.585-.092 1.029-.33 1.338-.236.305-.586.389-1.04.253l-1.924-.699-.01-.05a.684.684 0 0 0-.038-.097c.01-.916.175-1.856.504-2.82ZM92.81 15.458l.061 1.842c.117 3.44.002 6.651-.347 9.64l1.855-1.319.43-12.796c-1.834 1.537-3.216 2.588-4.148 3.15l.032.917 2.116-1.434ZM74.174 28.318c-.445 1.349-.674 2.565-.692 3.647.061 1.8.574 2.543 1.533 2.236.666-.247 1.317-.721 1.947-1.425a9.465 9.465 0 0 0 1.544-2.36l2.052-4.357.045 1.305c.025.738.021 1.388-.014 1.95a72.612 72.612 0 0 1-.28 2.722c.007.205.039.292.107.267.1-.038.169-.075.2-.122.754-.7 1.301-1.182 1.648-1.443.342-.262.936-.64 1.777-1.142l-.323-.472c-.383.206-.81.472-1.28.806-.19.07-.324-.287-.4-1.07a32.61 32.61 0 0 1 .044-1.835c.032-.651.108-1.95.226-3.893.118-1.945.203-3.475.255-4.584l-1.79.87a1.48 1.48 0 0 1-.477.073 1.55 1.55 0 0 0-.518.088c-.511.19-1.125.728-1.843 1.616-.717.887-1.412 1.96-2.086 3.217a24.41 24.41 0 0 0-1.675 3.906Zm4.298-6.549c.511-.67.95-1.074 1.314-1.208.11-.041.203-.05.281-.026.39.033.6.421.625 1.169.025.734-.031 1.35-.168 1.854a28.12 28.12 0 0 1-.999 3.282c-.437 1.2-.936 2.27-1.498 3.21-.557.937-1.119 1.52-1.68 1.744-.683.255-1.08-.126-1.195-1.133a1.25 1.25 0 0 0 .046-.385c.025-.895.201-1.875.528-2.947a19.633 19.633 0 0 1 1.233-3.079c.495-.982.997-1.806 1.513-2.481ZM92.66 10.21c.252.18.541.193.872.032.009-.004.017-.004.03-.005.01-.002.02-.001.02.007.39-.202.72-.538.986-1.01.261-.47.388-.925.371-1.364-.012-.402-.168-.69-.464-.864-.296-.174-.632-.168-1.003.012-.388.188-.695.519-.924.998-.224.472-.333.932-.318 1.368.037.37.183.645.43.825ZM68.984 36.477c1.196-1.09 2.436-1.848 3.717-2.275l-.03-.896-1.846.782.249-11.036-1.415.422a87.157 87.157 0 0 0-2.269 3.33 45.025 45.025 0 0 0-1.79 3.028 42.493 42.493 0 0 0-1.567 3.25l.6-8.395c-1.204 1.17-2.581 1.979-4.124 2.439l.033 1.002 1.987-1.061-.243 11.04 1.57-.467c.095-1.132.292-2.2.592-3.203.3-1.008.678-1.965 1.133-2.876.45-.915.886-1.703 1.296-2.37.415-.67 1.192-1.883 2.332-3.645.095 4.824-.116 8.404-.643 10.74l.418.19ZM109.887.757 108.528.27l-2.764 4.105.35.257 3.773-3.875ZM105.605 19.053c.542.17 1.221.031 2.035-.411 1.126-.613 1.986-1.398 2.579-2.355.594-.957.975-1.83 1.15-2.624.174-.79.256-1.365.244-1.719l-.747.298.007.205c.019.537-.087 1.117-.318 1.742a6.282 6.282 0 0 1-.959 1.716c-.413.524-.863.917-1.35 1.182-1.588.785-2.476-.105-2.653-2.677.031-.625.053-.941.061-.946a42.012 42.012 0 0 0 4.924-3.854c.161-1.003.232-1.773.215-2.306-.022-.623-.128-1.13-.322-1.52-.191-.392-.496-.621-.909-.688-.417-.064-.953.083-1.611.442a5.942 5.942 0 0 0-1.916 1.772 9.378 9.378 0 0 0-1.237 2.493 15.716 15.716 0 0 0-.642 2.787 24.568 24.568 0 0 0-.208 2.925c.032.93.18 1.713.446 2.342.265.629.669 1.03 1.211 1.196Zm.625-10.073c.359-1.376.942-2.293 1.744-2.751.539-.293.89-.253 1.061.115.171.366.266.884.288 1.546a4.02 4.02 0 0 1-.363 1.765 3.664 3.664 0 0 1-1.138 1.452l-2.102 1.476-.009-.041a.186.186 0 0 0-.042-.055c.012-.963.196-2.127.561-3.507ZM97.961 12.458c-.155 3.846-.22 6.657-.196 8.434.026.268.055.67.09 1.203.035.529.065.935.085 1.206.162.032.448.026.852-.008.405-.033.87-.19 1.398-.466a5.582 5.582 0 0 0 1.713-1.392 6.265 6.265 0 0 0 1.116-1.999 6.38 6.38 0 0 0 .344-2.282l-.68.355c.03.858-.12 1.631-.453 2.322-.332.692-.778 1.207-1.331 1.553l-.036.027a.302.302 0 0 0-.063.08c-.367.175-.635.186-.81.03-.172-.152-.283-.42-.332-.788a17.79 17.79 0 0 1-.115-1.682c-.066-4.802-.072-7.274-.032-7.403l2.758-1.417.012-1.076-2.561 1.393.19-3.095-1.823 1.423-.056 2.556-1.668.822.037 1.1 1.561-.896ZM85.508 30.294a19.243 19.243 0 0 1 4.287-2.847l-.038-1.1-2.268 1.482c-.007-.176-.008-1.097-.007-2.769 0-1.667.017-3.584.048-5.75.035-2.168.094-4.17.182-6.002.089-1.832.215-3.204.38-4.118.23-1.272.474-2.246.727-2.93.258-.683.481-1.141.669-1.381.19-.24.323-.404.4-.494l-.026-.76-2.724 1.212a140.84 140.84 0 0 0-.57 3.58c-.15 1.036-.281 2.017-.388 2.939-.103.925-.2 1.89-.283 2.906-.078 1.014-.16 2.184-.236 3.518a75.359 75.359 0 0 0-.105 3.004 296.35 296.35 0 0 0-.012 3.69c.008 1.452.012 2.576.01 3.378a68.075 68.075 0 0 1-.046 2.442ZM56.143 39.638c1.219-.901 2.48-1.465 3.785-1.697l-.031-.895-1.878.496.26-10.942-1.44.204a71.13 71.13 0 0 0-2.312 2.968 36.403 36.403 0 0 0-1.823 2.74 34.675 34.675 0 0 0-1.596 2.995l.614-8.261a8.514 8.514 0 0 1-4.197 1.8l.034 1.001 2.022-.753-.255 10.945 1.598-.226c.098-1.111.3-2.144.604-3.094.306-.957.693-1.851 1.155-2.688.458-.842.903-1.561 1.32-2.16.424-.604 1.215-1.694 2.377-3.272.093 4.812-.126 8.341-.663 10.587l.426.252Z"/><path d="M28.979 47.386C11.39 43.222 1.985 33.372.757 17.836c-.53 3.425-.753 6.617-.698 9.587-.921 55.274 90.84 36.498 124.952-18.549l-.511.492c.481-.725.955-1.455 1.416-2.193-26.548 25.524-56.469 43.961-96.937 40.213Z"/><path d="M129.29 3.517c-3.779-3.367-8.995-1.026-14.417 2.132 13.296-3.86 15.34 2.334 12.27 13.1 3.18-5.995 5.538-11.684 2.147-15.232ZM42.112 15.52c.23.003.377.013.45.032.14.025.234.181.281.474.048.293.081.671.1 1.138l.168 4.205c.025.625-.187.934-.639.93l-.572-.008.019.47c.502-.061 1.074-.088 1.717-.08.643.008 1.22.05 1.726.123l-.018-.444-.6-.007c-.314-.004-.518-.176-.613-.514-.094-.337-.152-.772-.173-1.306l-.156-3.85a.351.351 0 0 0-.032-.153c.004-.317.05-.556.146-.718.097-.161.282-.24.555-.238l.525.006-.02-.489a52.19 52.19 0 0 1-1.692.065 59.065 59.065 0 0 1-1.676-.107l.02.465.484.007ZM34.27 16.066a.684.684 0 0 0-.032-.192c.003-.296.041-.507.116-.636.076-.129.247-.182.512-.16l2.263.186.209 5.186c.006.512.005.838-.01.976a.38.38 0 0 1-.22.31c-.135.07-.379.09-.732.06l-.571-.048.019.47c.923.009 1.584.029 1.98.062.477.038 1.208.133 2.192.28l-.017-.441-.471-.039c-.363-.03-.627-.095-.794-.2a.75.75 0 0 1-.332-.47c-.056-.21-.091-.532-.108-.96l-.204-5.08 1.82.149c.25.02.432.066.543.139.11.07.182.17.21.297.03.127.052.33.063.613l.443.036-.068-1.67a92.136 92.136 0 0 1-3.793-.171 82.741 82.741 0 0 1-3.53-.428l.065 1.673.447.058ZM46.199 16.776a.59.59 0 0 0-.033-.187c.002-.298.04-.515.116-.654.075-.138.247-.212.512-.223l2.27-.09.209 5.187c.007.513.006.842-.009.982a.445.445 0 0 1-.221.339c-.135.085-.38.135-.735.15l-.573.022.02.468c.926-.104 1.588-.164 1.985-.18a35.42 35.42 0 0 1 2.198.014l-.018-.44-.472.018c-.364.014-.628-.02-.796-.103a.647.647 0 0 1-.332-.434c-.055-.204-.092-.523-.109-.95l-.204-5.081 1.826-.073c.25-.01.433.015.544.073a.39.39 0 0 1 .21.274c.031.123.053.325.063.608l.445-.017-.067-1.67c-1.024.103-2.294.2-3.803.29-1.409.026-2.59.026-3.542 0l.068 1.674.448.003ZM71.817 18.702c.61.201 1.28.195 2.014-.018a5.278 5.278 0 0 0 1.937-1.038 5.114 5.114 0 0 0 1.358-1.784 4.89 4.89 0 0 0 .438-2.272c-.03-.73-.236-1.357-.62-1.886a2.884 2.884 0 0 0-1.51-1.083c-.626-.195-1.294-.19-2.005.016a5.055 5.055 0 0 0-1.461.721 5.38 5.38 0 0 0-1.195 1.16c-.34.45-.6.944-.781 1.483a4.569 4.569 0 0 0-.237 1.663c.038.745.239 1.387.602 1.928.364.539.851.91 1.46 1.11ZM71 13.544c.227-.555.56-1.035.997-1.442.44-.408.95-.697 1.534-.866a2.279 2.279 0 0 1 1.182-.048c.371.09.695.262.971.514.279.25.498.565.66.938.16.374.25.784.267 1.225.03.73-.066 1.386-.287 1.963a3.695 3.695 0 0 1-.976 1.444c-.428.387-.924.67-1.493.852-.004 0-.01.006-.022.01-.012.01-.029.02-.048.035-.575.16-1.097.125-1.564-.1-.468-.226-.837-.589-1.11-1.088a3.857 3.857 0 0 1-.444-1.686A4.45 4.45 0 0 1 71 13.544ZM30.514 17.672l.901.63c.803.536 1.228 1.14 1.28 1.817.016.425-.11.745-.382.964-.27.217-.607.296-1.01.234-.424-.064-.783-.282-1.083-.653-.298-.37-.457-.773-.475-1.206l-.02-.52-.544-.083a9.59 9.59 0 0 1 .131 1.675c0 .186.001.334.005.438.124.098.4.25.83.455.431.207.812.333 1.146.385.502.067.912.025 1.233-.13.321-.154.552-.39.696-.71.144-.322.206-.699.189-1.131-.021-.505-.187-1.008-.498-1.511-.31-.5-.725-.912-1.24-1.234l-.786-.497c-.688-.445-1.044-.982-1.07-1.611a.88.88 0 0 1 .344-.73c.229-.181.501-.247.82-.198.277.041.493.146.655.314.16.167.271.347.33.545a2.2 2.2 0 0 1 .1.54l.004.1.494.075-.061-1.53-.23-.035a.478.478 0 0 0-.188-.058c-.519-.177-.883-.282-1.091-.314-.37-.056-.697-.035-.983.066-.287.1-.516.284-.683.553-.168.268-.255.609-.263 1.025.036.893.518 1.671 1.449 2.335ZM53.967 15.188c.223-.028.386.011.488.119.103.106.17.265.201.475.032.21.056.535.073.975l.107 2.65c.025.6.123 1.096.293 1.483.17.386.4.679.686.877.288.197.618.323.99.375.373.054.795.058 1.27.01.984-.124 1.741-.496 2.275-1.117.532-.622.776-1.494.73-2.624l-.118-2.936c-.016-.41.008-.701.07-.879.064-.176.234-.282.506-.316l.369-.048-.02-.49c-.5.11-1.096.221-1.782.336-.628.048-1.073.066-1.335.059l.02.49.544-.069c.253-.031.44-.03.563.006.12.038.219.167.293.387.077.221.126.596.147 1.125l.088 2.189c.041 1.03-.128 1.808-.512 2.336-.382.528-.978.843-1.786.946-.46.048-.868.002-1.219-.14a1.694 1.694 0 0 1-.84-.753c-.209-.357-.324-.828-.348-1.413l-.124-3.088a4.94 4.94 0 0 1 .006-.65.662.662 0 0 1 .164-.382c.093-.103.244-.168.455-.195l.568-.073-.02-.493c-.281.077-.816.183-1.601.32-.758.057-1.267.085-1.526.077l.018.47.307-.039ZM62.958 15.103a.564.564 0 0 0-.032-.182c.002-.301.04-.526.113-.679.074-.152.242-.256.501-.313l2.22-.48.208 5.187c.008.516.007.847-.009.99a.555.555 0 0 1-.216.38c-.132.11-.37.201-.718.276l-.56.12.02.47c.905-.264 1.553-.44 1.942-.523.468-.1 1.184-.222 2.149-.363l-.017-.44-.462.1c-.356.077-.615.088-.778.031-.165-.055-.273-.183-.326-.378-.054-.197-.09-.511-.108-.94l-.203-5.08 1.785-.386c.245-.053.424-.06.532-.02a.312.312 0 0 1 .207.24c.03.118.05.318.061.601l.434-.094-.066-1.67c-1.001.282-2.243.596-3.72.945a81.083 81.083 0 0 1-3.461.609l.067 1.674.437-.075ZM16.11 10.427c.219.069.358.122.427.16.133.066.223.248.27.55.045.304.077.688.096 1.154l.169 4.206c.025.624-.177.868-.607.732l-.545-.173.018.47a12.98 12.98 0 0 1 1.636.419c.614.195 1.163.402 1.645.621l-.017-.443-.574-.181c-.297-.095-.493-.324-.584-.686a6.672 6.672 0 0 1-.167-1.34l-.155-3.85a.473.473 0 0 0-.03-.161c0-.312.046-.535.136-.667.092-.132.268-.157.528-.074l.5.158-.02-.49c-.213-.048-.749-.19-1.61-.427a68.733 68.733 0 0 1-1.597-.592l.019.465.462.149ZM20.056 11.746c.229.06.383.154.46.285.08.13.124.329.136.595l.196 4.878.01.227c.011.315-.02.541-.094.674-.076.133-.255.164-.536.09l-.43-.112.018.47c.494.077 1 .185 1.516.32.582.15 1.097.319 1.545.503l-.018-.441-.529-.139c-.354-.092-.59-.27-.707-.532-.116-.262-.183-.615-.201-1.06l-.215-4.756 6.062 8.3.283.074-.25-6.846c-.009-.215.021-.357.092-.43.07-.073.209-.082.414-.028l.558.145-.02-.492a29.012 29.012 0 0 1-1.566-.3 38.9 38.9 0 0 1-1.472-.492l-.003.511.37.097.431.113c.176.046.3.118.378.218.076.1.12.29.131.567l.434 5.037-5.593-7.547c-.139-.016-.448-.07-.932-.158-.498-.167-.832-.292-1.005-.377l.02.47.517.136ZM96.808 45.858c.06.218.063.403.01.555a.767.767 0 0 1-.302.387.834.834 0 0 1-.659.141c-.233-.045-.453-.196-.654-.452l1.811-1.259a6.433 6.433 0 0 0-.075-.112c-.279-.397-.6-.636-.962-.711-.36-.076-.703-.001-1.027.223-.335.234-.53.535-.582.907-.052.37.065.76.351 1.164.276.392.595.624.957.697.361.073.72-.014 1.075-.261.281-.196.465-.425.552-.687a1.256 1.256 0 0 0-.033-.835l-.462.243Zm-1.96-.373a.79.79 0 0 1 .345-.52.762.762 0 0 1 .677-.117c.156.04.316.157.477.346l-1.357.944c-.135-.22-.182-.438-.141-.653ZM101.473 42.297c.123.222.169.42.135.595a.696.696 0 0 1-.284.44.749.749 0 0 1-.641.142c-.232-.053-.466-.236-.706-.553-.237-.312-.346-.587-.328-.825a.77.77 0 0 1 .328-.585c.134-.1.279-.145.433-.137.156.01.311.08.468.209l.347-.352c-.228-.202-.472-.307-.734-.314-.261-.008-.521.085-.778.278-.203.153-.356.34-.456.566-.1.226-.121.465-.062.719.06.254.185.509.378.762.299.393.626.621.983.684.356.063.697-.029 1.02-.27.26-.193.42-.434.482-.72s.011-.58-.151-.882l-.434.243ZM103.991 40.167l-.412-.525a2.71 2.71 0 0 0-.305-.347.795.795 0 0 0-.333-.172.834.834 0 0 0-.414.038c-.161.05-.341.15-.54.306a1.963 1.963 0 0 0-.466.494.948.948 0 0 0-.166.506c-.002.164.045.341.139.532l.429-.246c-.087-.197-.111-.365-.074-.498.039-.133.151-.273.338-.417.199-.154.384-.228.555-.217.126.008.253.091.379.252l.078.104c-.109.17-.31.398-.6.684-.141.14-.242.252-.304.332-.083.11-.144.227-.184.35a.818.818 0 0 0 .14.756c.153.194.347.3.583.318.235.017.481-.074.738-.274.156-.119.282-.258.378-.414a1.86 1.86 0 0 0 .216-.592c.099.103.201.176.304.227l.414-.323a1.086 1.086 0 0 1-.32-.2c-.095-.084-.286-.308-.573-.674Zm-.238 1.18a1.038 1.038 0 0 1-.329.415c-.155.12-.298.176-.432.168a.426.426 0 0 1-.327-.17.425.425 0 0 1-.038-.478c.045-.08.139-.197.284-.345.255-.264.432-.481.53-.652l.115.144c.136.173.218.32.244.443a.769.769 0 0 1-.047.475ZM109.933 34.741c-.316-.346-.658-.533-1.029-.558-.372-.025-.708.096-1.012.368a1.358 1.358 0 0 0-.472.864c-.053.398.107.799.474 1.204.336.37.688.569 1.057.594.368.027.706-.098 1.015-.374.192-.172.329-.374.411-.61.082-.235.092-.47.031-.708-.062-.238-.22-.497-.475-.78Zm-.243 1.793a.798.798 0 0 1-.655.205c-.249-.027-.501-.183-.756-.464-.253-.28-.383-.543-.384-.793a.785.785 0 0 1 .275-.623.804.804 0 0 1 .651-.205c.251.03.499.18.745.45.26.287.392.554.396.805a.784.784 0 0 1-.272.625ZM105.414 35.322l.945 1.117a1.009 1.009 0 0 0-.452-.007.98.98 0 0 0-.437.219 1.146 1.146 0 0 0-.367 1.276c.079.246.214.481.405.706.195.232.409.4.641.508.235.109.47.15.705.122.235-.027.444-.116.624-.268.28-.232.398-.52.352-.864l.241.286.358-.3-2.632-3.115-.383.32Zm1.741 1.994c.237.282.353.539.351.773a.708.708 0 0 1-.255.564.736.736 0 0 1-.616.145c-.244-.039-.487-.205-.732-.495-.252-.298-.379-.564-.382-.799a.688.688 0 0 1 .253-.564.718.718 0 0 1 .626-.153c.242.044.493.22.755.53ZM98.773 45.125a.334.334 0 0 1-.16.069.21.21 0 0 1-.127-.032.928.928 0 0 1-.18-.209l-.994-1.41.413-.289-.224-.318-.413.289-.595-.844-.238.53.423.597-.304.212.224.318.303-.21.978 1.388c.173.246.303.394.391.449a.487.487 0 0 0 .304.063c.116-.01.248-.067.398-.172.092-.063.186-.148.285-.252l-.315-.32c-.066.063-.123.11-.169.14ZM97.813 42.708l1.784 2.35.403-.3-1.784-2.352-.403.302ZM94.93 43.333l-.54.375.144.848.342-.238.054-.985ZM97.543 41.503l-.402.3.348.46.402-.3-.348-.46ZM113.553 32.213a.733.733 0 0 0-.386-.224.742.742 0 0 0-.422.04 6.076 6.076 0 0 0-.697.346 7.968 7.968 0 0 1-.409.216.443.443 0 0 1-.232.036.284.284 0 0 1-.168-.083c-.07-.072-.095-.17-.078-.294.018-.122.111-.262.277-.422.14-.135.279-.21.415-.22a.548.548 0 0 1 .388.12l.306-.387a1.072 1.072 0 0 0-.443-.209.843.843 0 0 0-.47.075c-.174.074-.345.19-.511.35a1.48 1.48 0 0 0-.271.344 1.06 1.06 0 0 0-.129.325.829.829 0 0 0 .018.37.757.757 0 0 0 .189.326.746.746 0 0 0 .787.185c.149-.048.389-.167.719-.355.244-.14.407-.218.488-.233a.307.307 0 0 1 .293.09c.087.09.123.207.11.351-.016.144-.107.296-.272.456-.166.159-.33.244-.495.254a.701.701 0 0 1-.487-.166l-.302.4c.257.186.514.268.771.241.257-.026.523-.171.802-.438.166-.16.289-.334.365-.518a.94.94 0 0 0 .067-.536.844.844 0 0 0-.223-.44ZM115.394 29.533c-.327-.337-.677-.512-1.048-.523-.372-.013-.705.12-.999.403-.263.253-.41.546-.44.88-.038.399.135.795.516 1.187.349.359.706.544 1.076.556.371.014.704-.122 1.002-.409a1.45 1.45 0 0 0 .39-.623c.073-.237.074-.474.005-.71-.07-.235-.238-.488-.502-.761Zm-.18 1.799a.795.795 0 0 1-.648.229c-.25-.02-.507-.166-.77-.438-.263-.271-.402-.53-.413-.78a.796.796 0 0 1 .253-.633.797.797 0 0 1 .644-.227c.251.02.503.162.759.424.27.278.413.542.425.791a.783.783 0 0 1-.25.634ZM121.283 24.314a.752.752 0 0 0-.397-.204.75.75 0 0 0-.419.062c-.141.06-.366.188-.678.382a7.845 7.845 0 0 1-.397.236.444.444 0 0 1-.229.049.283.283 0 0 1-.171-.073c-.075-.07-.106-.167-.095-.29.011-.123.096-.269.254-.437.132-.142.267-.223.403-.242a.557.557 0 0 1 .395.101l.284-.403a1.078 1.078 0 0 0-.453-.185.837.837 0 0 0-.465.099 1.71 1.71 0 0 0-.493.376c-.104.112-.189.23-.252.357a1.034 1.034 0 0 0-.11.33.789.789 0 0 0 .242.685.77.77 0 0 0 .366.19.745.745 0 0 0 .428-.046c.147-.056.381-.188.7-.392.238-.152.395-.239.474-.258a.307.307 0 0 1 .299.074.415.415 0 0 1 .127.345c-.006.144-.089.302-.247.469-.157.167-.318.26-.481.281a.7.7 0 0 1-.494-.14l-.281.412c.266.174.528.24.783.203.256-.038.515-.197.777-.478a1.5 1.5 0 0 0 .338-.535.946.946 0 0 0 .039-.54.86.86 0 0 0-.247-.428ZM124.005 21.567l.432.373.376-.43-.433-.372-.375.43ZM117.333 25.5l2.169 2.009.344-.366-2.17-2.009-.343.366ZM122.802 21.5c-.355-.307-.718-.45-1.089-.43-.372.018-.692.182-.96.488-.24.275-.359.58-.361.914-.001.4.205.78.62 1.138.378.327.751.48 1.12.462.369-.018.69-.183.962-.494a1.44 1.44 0 0 0 .333-.655 1.201 1.201 0 0 0-.057-.707c-.09-.229-.279-.468-.568-.717Zm-.02 1.809a.798.798 0 0 1-.624.283c-.251.001-.52-.122-.808-.37-.287-.246-.446-.494-.479-.74a.794.794 0 0 1 .198-.653.796.796 0 0 1 .621-.282c.252-.002.516.117.793.357.294.253.458.504.494.751a.79.79 0 0 1-.195.654ZM115.711 28.296a.53.53 0 0 1-.069-.325.472.472 0 0 1 .135-.28.716.716 0 0 1 .334-.187l-.216-.446a.985.985 0 0 0-.475.256.557.557 0 0 0-.151.3c-.02.117.005.29.076.516l-.323-.309-.314.323 2.133 2.046.35-.359-1.118-1.071a1.934 1.934 0 0 1-.362-.464ZM117.043 26.932a.53.53 0 0 1-.068-.324.47.47 0 0 1 .134-.28.706.706 0 0 1 .334-.187l-.215-.447a.986.986 0 0 0-.475.258.554.554 0 0 0-.151.3c-.021.116.005.289.076.516l-.324-.31-.314.323 2.134 2.046.349-.36-1.116-1.07a1.936 1.936 0 0 1-.364-.465ZM117.274 24.762l-.422-.393-.344.365.422.393.344-.365ZM56.788 61.063l.921 3.962.49-.113-.922-3.961-.49.112ZM69.834 56.922l.528 1.363a.994.994 0 0 0-.91-.088 1.153 1.153 0 0 0-.766 1.087c-.006.259.044.526.15.8.11.282.256.511.441.69.186.177.395.292.626.343.232.049.458.032.68-.053.34-.13.545-.364.615-.704l.136.348.435-.167-1.468-3.796-.467.177Zm.991 2.447c.133.343.16.626.08.845a.703.703 0 0 1-.426.45c-.204.078-.414.057-.631-.06-.217-.117-.393-.352-.53-.703-.14-.365-.173-.658-.097-.881a.692.692 0 0 1 .424-.452.726.726 0 0 1 .641.058c.215.12.394.367.54.743ZM56.547 63.025a1.194 1.194 0 0 0-.537-.455 1.177 1.177 0 0 0-.695-.062c-.19.036-.344.105-.463.204a1.11 1.11 0 0 0-.295.4l-.073-.376-.45.088.784 3.999.493-.096-.275-1.407c.105.089.228.156.373.2.145.042.298.049.462.016a1.234 1.234 0 0 0 .966-.948c.06-.258.062-.534.004-.828a1.996 1.996 0 0 0-.294-.735Zm-.278 1.73a.726.726 0 0 1-.51.386.718.718 0 0 1-.603-.16c-.187-.15-.316-.41-.389-.782-.073-.372-.048-.671.077-.898.123-.226.29-.36.501-.4.211-.041.411.016.6.17.188.153.319.413.39.783.076.386.054.686-.066.9ZM73.485 56.982c-.343-.144-.702-.136-1.078.023a1.38 1.38 0 0 0-.73.661c-.178.363-.159.792.056 1.294.195.458.463.76.803.904.34.144.701.134 1.083-.027.24-.1.434-.247.59-.443a1.2 1.2 0 0 0 .26-.66c.02-.242-.044-.541-.195-.89-.183-.43-.446-.717-.789-.862Zm.434 1.976a.792.792 0 0 1-.462.503.797.797 0 0 1-.687-.018c-.226-.108-.413-.336-.561-.682-.148-.347-.183-.64-.105-.876a.804.804 0 0 1 .464-.501.8.8 0 0 1 .684.02c.227.106.413.329.557.665.15.354.187.65.11.89ZM47.952 62.765l.569 4.027.536-.075-.57-4.027-.535.075ZM53.253 63.322c-.18-.138-.415-.188-.707-.148-.371.052-.65.265-.834.637a.716.716 0 0 0-.348-.334.965.965 0 0 0-.553-.061 1.066 1.066 0 0 0-.505.203 1.06 1.06 0 0 0-.32.396l-.057-.408-.445.06.412 2.919.5-.07-.215-1.514c-.038-.265-.04-.471-.007-.62a.625.625 0 0 1 .214-.357.722.722 0 0 1 .372-.165c.185-.025.325.01.422.11.097.097.16.258.192.478l.267 1.894.498-.069-.24-1.697c-.042-.3-.004-.526.112-.682a.707.707 0 0 1 .486-.277.555.555 0 0 1 .31.038c.091.04.16.104.206.185.044.083.08.223.108.421l.26 1.837.495-.07-.284-2c-.047-.332-.16-.568-.34-.706ZM63.65 61.063a.95.95 0 0 0-.254-.312.778.778 0 0 0-.393-.15 1.235 1.235 0 0 0-.5.044c-.395.111-.652.353-.773.725l-.115-.403-.435.123.817 2.83.484-.135-.447-1.547c-.105-.363-.101-.63.01-.803a.809.809 0 0 1 .478-.346.68.68 0 0 1 .363-.01.5.5 0 0 1 .265.174c.066.088.126.23.182.424l.497 1.723.484-.138-.502-1.741a3.036 3.036 0 0 0-.162-.458ZM60.995 62.997l-.151-.648a2.977 2.977 0 0 0-.128-.444.816.816 0 0 0-.23-.297.843.843 0 0 0-.392-.14 1.88 1.88 0 0 0-.62.053 2.01 2.01 0 0 0-.632.251.976.976 0 0 0-.367.39c-.069.147-.102.327-.099.541l.494-.044c.006-.218.053-.377.144-.483.092-.104.252-.183.483-.237.247-.056.446-.045.596.038.11.058.19.188.237.386.004.018.014.062.026.128-.17.108-.45.23-.834.368a3.595 3.595 0 0 0-.418.173 1.205 1.205 0 0 0-.316.24.818.818 0 0 0-.194.746.785.785 0 0 0 .391.531c.208.115.468.136.786.063.193-.043.365-.116.519-.217.153-.103.303-.251.449-.446.045.132.105.244.178.33l.512-.114a1.12 1.12 0 0 1-.204-.318c-.048-.114-.125-.397-.23-.85Zm-.475.558a.776.776 0 0 1-.246.412 1.028 1.028 0 0 1-.475.237c-.19.044-.344.034-.463-.03a.424.424 0 0 1-.224-.29.42.42 0 0 1 .015-.247.416.416 0 0 1 .156-.201c.075-.056.21-.12.405-.196.343-.131.596-.254.757-.367l.041.179c.05.213.062.382.034.503ZM67.816 59.272c-.328-.175-.686-.198-1.075-.073-.349.11-.61.312-.785.596-.21.344-.228.775-.06 1.294.157.473.396.796.723.97.326.174.686.196 1.08.069.247-.08.455-.21.626-.39.17-.184.276-.396.318-.637.041-.243.003-.541-.116-.903-.146-.446-.38-.753-.71-.926Zm.261 2.004a.786.786 0 0 1-.505.46.804.804 0 0 1-.683-.075c-.216-.127-.383-.37-.5-.73-.118-.357-.126-.652-.026-.881a.796.796 0 0 1 .507-.458.801.801 0 0 1 .679.076c.218.127.382.365.495.712.12.366.13.666.033.896ZM65.762 62.328a.344.344 0 0 1-.175.016.212.212 0 0 1-.113-.066.831.831 0 0 1-.11-.253l-.537-1.638.48-.156-.12-.368-.48.155-.321-.979-.383.438.228.694-.35.115.119.368.351-.113.528 1.611c.092.284.174.466.242.542a.465.465 0 0 0 .271.148c.114.025.257.008.431-.048a1.78 1.78 0 0 0 .347-.158l-.206-.398c-.083.042-.15.07-.202.09ZM82.47 54.288l-.305-.592a2.73 2.73 0 0 0-.232-.398.794.794 0 0 0-.294-.233.829.829 0 0 0-.414-.043 1.765 1.765 0 0 0-.59.2 1.951 1.951 0 0 0-.552.394.959.959 0 0 0-.261.465c-.033.16-.02.346.035.552l.468-.162c-.047-.21-.04-.378.023-.502s.2-.24.41-.345c.225-.115.421-.15.587-.108.122.031.232.137.324.319l.056.116c-.14.146-.38.332-.72.558-.167.112-.288.2-.364.268a1.205 1.205 0 0 0-.248.31.809.809 0 0 0-.006.768c.113.219.283.36.51.423.229.061.489.02.778-.129.176-.09.326-.2.451-.336.123-.135.232-.316.327-.539.075.116.162.21.254.28l.469-.238a1.125 1.125 0 0 1-.275-.258c-.074-.098-.219-.356-.43-.77Zm-.463 1.114c-.096.143-.23.258-.403.345-.174.089-.327.115-.457.081a.425.425 0 0 1-.288-.227.425.425 0 0 1 .057-.478c.059-.07.175-.166.345-.285.3-.21.515-.388.644-.538l.084.163c.1.197.152.357.155.48a.773.773 0 0 1-.137.459ZM90.47 49.996c.043.22.034.404-.03.551a.754.754 0 0 1-.328.366.826.826 0 0 1-.666.096c-.23-.062-.438-.228-.621-.496l1.896-1.131c-.029-.052-.052-.09-.068-.115-.251-.416-.555-.676-.91-.778-.353-.1-.701-.05-1.04.152-.351.21-.565.498-.644.865-.079.365.01.76.268 1.186.248.41.55.664.906.762.355.097.72.034 1.09-.187.296-.177.495-.392.6-.649.102-.255.11-.533.025-.833l-.479.21Zm-1.834.152c-.118-.23-.151-.45-.096-.66a.788.788 0 0 1 .38-.495.782.782 0 0 1 .684-.073c.154.053.305.18.452.382l-1.42.846ZM86.456 52.437c.037.221.02.405-.046.551a.767.767 0 0 1-.343.354.827.827 0 0 1-.667.072c-.229-.068-.431-.241-.605-.516l1.935-1.064a8.504 8.504 0 0 0-.064-.12c-.236-.423-.53-.693-.882-.806-.35-.114-.699-.075-1.046.115-.358.198-.581.478-.673.841-.091.364-.016.762.225 1.196.235.418.527.682.88.792.35.11.716.06 1.095-.15.302-.164.508-.372.621-.626.112-.253.13-.53.055-.833l-.486.194Zm-1.837.09c-.11-.235-.136-.456-.073-.664a.802.802 0 0 1 .398-.483.775.775 0 0 1 .684-.047c.152.056.299.19.439.395l-1.448.798ZM93.025 48.004a.747.747 0 0 0-.422-.04c-.151.024-.4.094-.75.208-.242.076-.39.121-.442.133a.454.454 0 0 1-.235-.008.277.277 0 0 1-.148-.113c-.056-.085-.063-.187-.021-.304.04-.117.157-.238.35-.364.165-.105.315-.15.452-.136a.53.53 0 0 1 .357.192l.376-.322a1.06 1.06 0 0 0-.395-.289.84.84 0 0 0-.475-.015c-.183.039-.374.12-.569.246-.13.085-.24.178-.332.285-.09.108-.154.205-.187.296a.796.796 0 0 0 .069.723.734.734 0 0 0 .735.33c.156-.019.414-.092.774-.213.267-.09.441-.136.524-.136.118 0 .208.048.27.143.07.105.082.227.04.366-.043.137-.16.271-.354.395-.193.124-.371.176-.536.157a.708.708 0 0 1-.446-.256l-.373.334c.217.232.454.36.712.384.256.025.546-.067.87-.277.195-.125.347-.271.457-.437a.942.942 0 0 0 .169-.515.828.828 0 0 0-.135-.474.733.733 0 0 0-.335-.293ZM94.84 47.824a.35.35 0 0 1-.163.061.206.206 0 0 1-.127-.034.913.913 0 0 1-.173-.217l-.943-1.444.424-.273-.214-.325-.423.273-.565-.864-.254.523.4.612-.31.2.214.323.308-.198.929 1.421c.164.25.29.406.375.46a.489.489 0 0 0 .302.075c.117-.007.25-.058.405-.157a1.8 1.8 0 0 0 .293-.243l-.303-.33c-.07.06-.127.107-.175.137ZM78.497 54.321l1.254 2.67.455-.211-1.254-2.67-.455.211ZM78.938 56.921a.342.342 0 0 1-.17.04.21.21 0 0 1-.12-.053.9.9 0 0 1-.14-.238l-.733-1.562.458-.212-.165-.351-.457.212-.439-.933-.326.482.31.66-.333.157.164.351.334-.156.722 1.538c.127.269.23.44.306.507a.492.492 0 0 0 .288.115c.117.01.257-.023.422-.1.101-.047.21-.114.326-.199l-.254-.37c-.077.051-.14.089-.193.112ZM78.713 53.62l-.245-.52-.456.21.245.521.456-.21ZM76.614 55.957a.979.979 0 0 0-.299-.267.77.77 0 0 0-.412-.087 1.252 1.252 0 0 0-.487.12c-.373.173-.59.45-.65.836l-.177-.38-.41.19 1.252 2.67.456-.211-.684-1.458c-.161-.343-.2-.606-.117-.795a.82.82 0 0 1 .417-.416.651.651 0 0 1 .356-.064.473.473 0 0 1 .29.13c.079.076.161.206.247.39l.763 1.623.456-.21-.77-1.643a2.812 2.812 0 0 0-.231-.428Z"/></g><defs><clipPath id="clip0_4_4"><path fill="#fff" d="M0 0h131v67H0z"/></clipPath></defs></svg>