<svg width="66" height="66" fill="none" xmlns="http://www.w3.org/2000/svg"><path d="M5.873 29.42S16.779 48 34.074 48C51.314 48 62 28.464 62 28.464S46.247 41.92 33.909 41.92c-12.338 0-28.036-12.5-28.036-12.5ZM33.909 24.354c5.453 0 28.036 1.351 28.036 1.351-3.085 0-12.338-6.53-17.736-6.7-5.398-.168-9.915 3.716-9.915 3.716-5.232-2.871-10.906-5.799-18.231-1.633C8.737 25.255 4 26.155 4 26.155c23.41-2.477 24.456-1.801 29.909-1.801Z" fill="#fff"/><path d="M54.895 29.984v-1.52l3.8.056v-.732h-3.8v-1.182H52.47v1.182h-3.966v-1.182h-2.423v1.182H41.84v-1.182h-2.423v1.182H34.79v-1.182h-2.423v1.182h-3.911v-1.182h-2.424v1.182h-3.855v-1.182h-2.369v1.182h-4.406v-1.182h-2.424v1.182H7.69v.338l5.288.056v1.802h2.424v-1.802l4.406.057v1.745h2.369v-1.745l3.855.056v1.689h2.424v-1.69h3.91v1.69h2.424V28.35h4.627v1.633h2.423v-1.577h4.242v1.577h2.423v-1.52h3.966v1.52h2.424ZM14.135 31.11c2.974.563 6.94 1.07 11.071.957 8.317-.225 9.143-.563 9.143-.563s-12.007.732-20.214-.394ZM14.135 31.11c-2.974-.563-4.957-1.126-4.957-1.126 1.321.507 3.029.844 4.957 1.126Z" fill="#fff"/></svg>