<svg width="66" height="66" fill="none" xmlns="http://www.w3.org/2000/svg"><path d="M41.712 7c-3.71 0-7.832 2.235-7.832 2.235-2.12 1.06-5.124-2.176-10.011-2.176-4.888 0-10.895 3.588-6.125 17.412 2.238 11.058 1.06 20.764 1.06 25.411 0 4.589 7.361 10.118 7.361 10.118 0-13.353.413-23.412 7.656-23.412 7.243 0 6.89 23.353 6.89 23.353 8.421-7.353 6.596-13.235 5.594-22.823-1-9.589 2.356-13.118 3.534-20.177C51.017 9.882 45.48 7 41.712 7Zm-1.884 16.941h-4.123v4.118h-4.71V23.94H26.93v-4.706h4.004v-3.53h4.83v3.53h4.063v4.706Z" fill="#fff"/></svg>