<svg width="66" height="66" fill="none" xmlns="http://www.w3.org/2000/svg"><path d="M29.776 29.703C31.81 29.703 36 20.87 36 14.306c0-6.563-4.252-10.305-7.58-10.305-3.327 0-7.27 2.76-9.735 2.76S10.798 3.94 8.333 4.001C5.868 4.062 1 6.945 1 14.491c0 7.544 5.423 15.212 5.423 15.212h23.353ZM29.222 32.34H8.086v3.681H4.697v2.577H32.92V36.02h-3.697v-3.68ZM27.866 40.315H9.504v3.251H6.546v2.147H31.07v-2.147h-3.204v-3.25ZM26.018 47.676h-15.22v2.638H8.332v1.779h20.334v-1.78h-2.65v-2.637ZM24.046 53.872h-10.66v1.901H11.66V57h14.296v-1.227h-1.91v-1.901ZM51.795 47.686c1.248.956 7.968-2.496 11.051-6.523 3.084-4.028 2.233-8.321.191-9.884-2.042-1.563-5.758-1.722-7.27-2.88-1.513-1.158-3.515-5.437-5.056-6.557s-5.883-1.638-9.427 2.992c-3.544 4.63-3.819 11.882-3.819 11.882l14.33 10.97ZM50.216 49.044l-12.97-9.928-1.728 2.258-2.08-1.592-1.21 1.58L49.545 54.62l1.21-1.58-2.268-1.737 1.729-2.259Z" fill="#fff"/><path d="M45.638 53.3 34.37 44.676l-1.527 1.994-1.815-1.39-1.008 1.318 15.048 11.521 1.009-1.317-1.967-1.506 1.528-1.994ZM41.045 56.949l-9.339-7.15-1.239 1.618-1.512-1.157-.836 1.091 12.478 9.553.835-1.092-1.626-1.245 1.24-1.618ZM36.925 59.824l-6.54-5.008-.894 1.167-1.059-.81-.576.752 8.772 6.716.576-.753-1.172-.897.893-1.167Z" fill="#fff"/></svg>