<svg width="41" height="32" fill="none" xmlns="http://www.w3.org/2000/svg"><path fill-rule="evenodd" clip-rule="evenodd" d="M20.848 8.348a4.172 4.172 0 0 0 4.169-4.174c0-2.078-1.517-3.8-3.502-4.12 1.456-.266 3.819.348 5.24 4.378 1.65 4.68 3.209 4.298 3.803 3.504-.94 1.28-3.332 3.586-5.541 2.757-2.224-.835-3.706-1.74-4.17-2.087-.463.347-1.945 1.252-4.169 2.087-2.209.829-4.6-1.477-5.54-2.757.593.794 2.153 1.176 3.803-3.504C16.36.402 18.724-.212 20.18.053a4.174 4.174 0 0 0-3.502 4.12 4.172 4.172 0 0 0 4.17 4.175Zm-9.73-.438.02.026-.02-.026Zm19.458 0-.018.026.018-.026Zm-6.254-3.736a3.476 3.476 0 0 1-3.474 3.478 3.476 3.476 0 0 1-3.475-3.478A3.476 3.476 0 0 1 20.847.696a3.476 3.476 0 0 1 3.475 3.478Zm-9.729 10.26a4 4 0 0 1 3.43-3.959l-.65.594 3.474 3.171 3.475-3.17-.344-.315a4.001 4.001 0 0 1 2.429 3.68V28a4 4 0 0 1-4 4h-3.814a4 4 0 0 1-4-4V14.435Zm6.339-4.695 1.474 1.476-1.474 1.476-1.474-1.476 1.474-1.476ZM10.424 4.174a4.172 4.172 0 0 1-4.17 4.174 4.172 4.172 0 0 1-4.17-4.174A4.172 4.172 0 0 1 6.255 0a4.172 4.172 0 0 1 4.17 4.174ZM3.435 8.387A4 4 0 0 0 0 12.347V28a4 4 0 0 0 4 4h3.814a4 4 0 0 0 4-4V12.348a4.001 4.001 0 0 0-2.482-3.702l.397.398-3.475 3.478L2.78 9.044l.655-.657Zm4.378 1.437L6.339 8.348 4.864 9.824l1.475 1.475 1.474-1.475Zm31.797-5.65a4.172 4.172 0 0 1-4.17 4.174 4.172 4.172 0 0 1-4.169-4.174A4.172 4.172 0 0 1 35.441 0a4.172 4.172 0 0 1 4.17 4.174Zm-6.989 4.213a4.001 4.001 0 0 0-3.435 3.96V28a4 4 0 0 0 4 4H37a4 4 0 0 0 4-4V12.348a4.001 4.001 0 0 0-2.482-3.702l.397.398-3.474 3.478-3.475-3.478.655-.657ZM37 9.824l-1.474-1.476-1.474 1.476 1.474 1.475 1.474-1.475Z" fill="#fff"/></svg>